<svg xmlns="http://www.w3.org/2000/svg" viewBox="0 0 42.211 7.62"><g fill="#3F3E3D"><path d="M4.237 3.682c-.243-.141-1.084-.516-1.598-.636-.25-.056-.443-.189-.607-.309-.164-.119-.247-.296-.252-.528a.801.801 0 0 1 .09-.404.817.817 0 0 1 .252-.28c.105-.073.224-.127.355-.161.133-.036.27-.055.412-.057.288-.005.613.074.833.186.435.221.715.362 1.055.094.206-.162.338-.614-.078-.923A2.088 2.088 0 0 0 4.05.346 3.395 3.395 0 0 0 2.996.2a3.5 3.5 0 0 0-.928.142c-.302.089-.57.222-.803.396a2.01 2.01 0 0 0-.561.654c-.141.262-.208.57-.202.925.007.407.094.731.259.97.166.239.37.43.611.571.241.142.501.267.791.33.707.156 1.192.244 1.495.509.159.14.211.334.216.586.002.156-.091.363-.16.483a.907.907 0 0 1-.277.301c-.115.08-.243.141-.384.182-.142.041-.29.02-.433.022-.271.005-.473-.066-.718-.188a1.478 1.478 0 0 1-.473-.383c-.224-.289-.496-.53-.865-.436-.256.066-.505.461-.269.928.12.237.312.481.491.623.416.331.949.604 1.831.604.336 0 .655-.057.957-.152.302-.096.566-.236.793-.421a1.96 1.96 0 0 0 .536-.693c.131-.277.223-.676.217-1.045-.007-.406-.272-1.07-.883-1.426z"/><path d="M2.617 7.62c-1.012 0-1.577-.347-1.956-.648a2.207 2.207 0 0 1-.545-.69c-.14-.276-.154-.567-.041-.817a.69.69 0 0 1 .438-.394c.508-.132.857.227 1.074.507a1.271 1.271 0 0 0 .403.325c.22.11.376.167.626.168l.124.002c.093.002.183.004.257-.017.12-.034.229-.086.326-.153a.701.701 0 0 0 .217-.236c.08-.139.134-.296.133-.381-.003-.22-.048-.35-.148-.438-.238-.209-.656-.3-1.234-.426l-.17-.037a2.89 2.89 0 0 1-.849-.353 2.112 2.112 0 0 1-.675-.63C.409 3.131.31 2.768.302 2.322c-.006-.39.07-.733.226-1.023.153-.284.361-.527.616-.719.253-.19.544-.334.867-.429A3.75 3.75 0 0 1 2.992 0c.392.008.755.046 1.116.155.273.083.505.197.71.35.224.166.35.395.353.643a.77.77 0 0 1-.271.598c-.44.348-.824.152-1.269-.072a1.685 1.685 0 0 0-.739-.166 1.431 1.431 0 0 0-.362.049.89.89 0 0 0-.293.131.62.62 0 0 0-.191.213.599.599 0 0 0-.066.305c.003.17.057.288.169.369.156.114.325.229.534.276.532.125 1.386.503 1.655.659.662.385.973 1.096.982 1.594.006.378-.084.812-.237 1.135-.141.301-.34.558-.589.762a2.585 2.585 0 0 1-.859.457 3.376 3.376 0 0 1-1.018.162zM.722 5.444a.445.445 0 0 0-.108.014c-.05.013-.126.065-.174.172-.036.08-.08.247.034.473.105.209.281.432.436.556.328.261.819.561 1.707.561.296 0 .598-.048.896-.143.277-.088.521-.217.728-.386.203-.166.364-.376.48-.623.126-.266.205-.641.199-.956-.006-.325-.22-.928-.784-1.257-.217-.126-1.046-.499-1.543-.613-.283-.064-.5-.211-.68-.344-.212-.154-.327-.391-.333-.685-.003-.19.036-.36.115-.504a1.02 1.02 0 0 1 .313-.349c.124-.087.265-.15.419-.19.146-.039.301-.061.458-.062.325.007.666.075.928.208.447.227.613.295.84.114a.36.36 0 0 0 .119-.277c-.003-.124-.067-.234-.192-.328a1.885 1.885 0 0 0-.588-.287A2.89 2.89 0 0 0 3 .4a3.326 3.326 0 0 0-.876.134 2.322 2.322 0 0 0-.739.365 1.8 1.8 0 0 0-.504.589 1.67 1.67 0 0 0-.179.827c.007.365.082.654.224.859.148.214.332.387.548.513.272.16.505.258.733.308l.169.037c.636.138 1.096.238 1.413.515.247.217.28.522.284.732.003.236-.142.509-.187.587a1.1 1.1 0 0 1-.335.366 1.511 1.511 0 0 1-.442.209 1.205 1.205 0 0 1-.379.032l-.107-.001c-.31.005-.551-.08-.811-.21a1.22 1.22 0 0 1-.127-.074 1.644 1.644 0 0 1-.414-.365C1.07 5.563.9 5.444.722 5.444z"/></g><g fill="#3F3E3D"><path d="M25.338.279c-2.097 0-3.579 1.609-3.579 3.53v.02c0 1.921 1.463 3.511 3.559 3.511 2.097 0 3.579-1.609 3.579-3.53v-.02c0-1.922-1.462-3.511-3.559-3.511zm2.302 3.55c0 1.326-.946 2.398-2.302 2.398-1.355 0-2.321-1.092-2.321-2.418V3.79c0-1.326.946-2.409 2.301-2.409 1.355 0 2.321 1.102 2.321 2.429v.019z"/><path d="M25.318 7.54c-2.143 0-3.76-1.596-3.76-3.711 0-2.111 1.66-3.75 3.779-3.75 2.143 0 3.76 1.596 3.76 3.711.001 2.111-1.66 3.75-3.779 3.75zm.02-7.061c-1.926 0-3.379 1.432-3.379 3.33 0 1.907 1.444 3.33 3.359 3.33 1.926 0 3.379-1.432 3.379-3.33 0-1.907-1.444-3.33-3.359-3.33zm0 5.949c-1.414 0-2.521-1.15-2.521-2.618 0-1.507 1.076-2.629 2.501-2.629 1.414 0 2.521 1.155 2.521 2.629v.02c.001 1.481-1.075 2.598-2.501 2.598zm-.02-4.847c-1.198 0-2.101.949-2.101 2.209 0 1.284.912 2.237 2.121 2.237 1.198 0 2.102-.945 2.102-2.198V3.81c-.001-1.271-.912-2.229-2.122-2.229z"/></g><g fill="#3F3E3D"><path d="M12.934 4.768a.626.626 0 0 0-.561-.093.785.785 0 0 0-.36.287c-.061.083-.184.27-.319.427-.106.123-.232.22-.281.257a2.298 2.298 0 0 1-1.32.501l-.079.003c-1.258.005-2.285-1.041-2.291-2.331-.005-1.291 1.014-2.345 2.273-2.349.635-.003 1.194.277 1.626.692.08.078.208.23.283.302.099.094.185.164.293.215.229.107.513-.001.631-.14.215-.252.168-.542.005-.857a2.048 2.048 0 0 0-.298-.4A3.498 3.498 0 0 0 9.991.2C8.033.208 6.446 1.834 6.455 3.824c.008 1.99 1.607 3.603 3.565 3.595h.011l.016-.001c.047 0 .093-.003.139-.005 1.06-.052 2.021-.614 2.616-1.372.017-.022.12-.179.155-.244.053-.097.102-.198.122-.262.053-.171.072-.292.052-.393a.539.539 0 0 0-.197-.374z"/><path d="M10.028 7.618a3.71 3.71 0 0 1-2.664-1.106 3.815 3.815 0 0 1-1.109-2.687 3.819 3.819 0 0 1 1.087-2.696A3.698 3.698 0 0 1 9.99 0h.015c1.017 0 1.966.405 2.674 1.143.054.058.23.253.332.446.083.161.337.649-.03 1.08-.175.204-.557.335-.868.191a1.288 1.288 0 0 1-.346-.252c-.041-.038-.097-.1-.153-.162a4.262 4.262 0 0 0-.131-.141c-.302-.29-.803-.636-1.477-.636h-.009a2.04 2.04 0 0 0-1.467.633 2.147 2.147 0 0 0-.606 1.516c.004 1.178.938 2.132 2.082 2.132h.008l.072-.003a2.112 2.112 0 0 0 1.206-.459c.045-.035.16-.123.251-.229.097-.112.187-.241.25-.332l.059-.082a.975.975 0 0 1 .442-.353c.2-.084.54-.061.765.121a.731.731 0 0 1 .269.507c.024.114.008.257-.06.474a1.96 1.96 0 0 1-.137.3 4.285 4.285 0 0 1-.171.269c-.673.857-1.706 1.399-2.766 1.451-.081.003-.119.006-.166.004zM10.005.4h-.013a3.297 3.297 0 0 0-2.363 1.008 3.417 3.417 0 0 0-.974 2.415c.003.91.356 1.765.993 2.407a3.3 3.3 0 0 0 2.357.988h.013l.124-.004a3.417 3.417 0 0 0 2.502-1.297c.016-.023.105-.159.137-.217a1.38 1.38 0 0 0 .106-.225c.043-.143.059-.235.047-.294-.015-.123-.054-.2-.126-.259a.445.445 0 0 0-.358-.063c-.072.031-.164.07-.276.222l-.053.075c-.07.1-.169.24-.275.363-.118.137-.257.243-.309.283a2.508 2.508 0 0 1-1.437.544l-.085.003h-.01c-1.363 0-2.476-1.133-2.482-2.53a2.56 2.56 0 0 1 .719-1.796 2.435 2.435 0 0 1 1.753-.753h.011c.639 0 1.245.259 1.754.748.042.042.097.102.15.16.048.054.096.107.132.141a.953.953 0 0 0 .24.18c.136.062.327-.012.394-.089.095-.111.167-.274-.021-.636a1.802 1.802 0 0 0-.267-.355A3.272 3.272 0 0 0 10.005.4z"/></g><g fill="#3F3E3D"><path d="M31.885 2.315V1.023a.612.612 0 1 0-1.226 0V7.21h4.898V6.136h-3.672V2.315z"/><path d="M35.758 7.409H30.46V1.022c0-.448.365-.813.813-.813s.813.365.813.813v4.913h3.672v1.474zm-4.898-.4h4.497v-.673h-3.672V1.022a.413.413 0 0 0-.825 0v5.987z"/></g><g fill="#3F3E3D"><path d="M38.339 2.315V1.023a.612.612 0 1 0-1.226 0V7.21h4.898V6.136h-3.672V2.315z"/><path d="M42.211 7.409h-5.298V1.022c0-.448.365-.813.813-.813s.813.365.813.813v4.913h3.672v1.474zm-4.898-.4h4.497v-.673h-3.672V1.022a.413.413 0 0 0-.826 0v5.987z"/></g><g fill="#3F3E3D"><path d="M17.73.379h-2.967a.087.087 0 0 0-.087.087v6.678c0 .048.039.087.087.087h1.03a.087.087 0 0 0 .087-.087V4.841h1.505l1.01 1.383.225.308v-.001l.281.385c.228.31.544.435.855.208.311-.228.304-.595.076-.905l-.595-.792-.588-.79c.95-.274 1.625-.949 1.625-2.075v-.02c0-.597-.206-1.106-.568-1.477-.439-.432-1.114-.686-1.976-.686zm1.321 2.25c0 .695-.548 1.146-1.409 1.146H15.88v-2.3h1.751c.891 0 1.419.4 1.419 1.135v.019z"/><path d="M19.431 7.439c-.249 0-.496-.139-.691-.405l-1.456-1.992H16.08v2.102a.288.288 0 0 1-.288.287h-1.03a.288.288 0 0 1-.287-.287V.466c0-.158.129-.287.287-.287h2.967c.888 0 1.62.257 2.117.743.412.422.628.98.628 1.62 0 1.042-.543 1.823-1.5 2.196l1.019 1.36a.959.959 0 0 1 .204.614.749.749 0 0 1-.322.572.738.738 0 0 1-.444.155zM15.68 4.642h1.807l1.576 2.156c.127.175.331.343.576.165a.353.353 0 0 0 .159-.271.571.571 0 0 0-.125-.354l-1.355-1.812.277-.08c.955-.275 1.48-.944 1.48-1.883 0-.553-.176-1.015-.511-1.357-.417-.408-1.053-.625-1.834-.625h-2.854V7.03h.804V4.642zm1.962-.666H15.68v-2.7h1.952c1.014 0 1.62.499 1.62 1.335v.02c0 .804-.647 1.345-1.61 1.345zm-1.561-.401h1.562c.746 0 1.209-.362 1.209-.945v-.02c0-.772-.663-.935-1.219-.935h-1.551v1.9z"/></g></svg>